<svg width="2048" height="203" viewBox="0 0 2048 203" fill="none" xmlns="http://www.w3.org/2000/svg">
<path d="M0 1H2048V203H0V1Z" fill="#272727"/>
<mask id="mask0_31_9" style="mask-type:alpha" maskUnits="userSpaceOnUse" x="0" y="0" width="2048" height="203">
<path d="M0 0H2048V203H0V0Z" fill="#272727"/>
</mask>
<g mask="url(#mask0_31_9)">
<path fill-rule="evenodd" clip-rule="evenodd" d="M887.278 -115.625C896.835 -100.532 892.347 -80.5496 877.254 -70.9928C868.537 -65.4729 859.079 -57.7852 848.447 -48.5227C845.237 -45.7261 841.8 -42.6756 838.254 -39.528C830.919 -33.0181 823.116 -26.0934 815.889 -20.1429C780.148 9.28573 735.497 11.994 703.066 13.9611C700.504 14.1165 698.018 14.2673 695.618 14.4263C657.317 16.964 619.237 14.5903 583.597 12.3686C577.899 12.0133 572.263 11.662 566.698 11.3353C525.371 8.90855 486.903 7.71598 448.73 13.8921C398.263 22.057 354.912 50.5767 334.594 94.9749C332.16 100.294 329.698 105.731 327.196 111.256C310.119 148.974 291.171 190.823 266.321 227.537C251.121 249.994 227.647 278.637 198.567 299.15C169.509 319.648 129.87 335.198 86.816 319.894C69.9838 313.91 61.1891 295.415 67.1725 278.582C73.156 261.75 91.6517 252.956 108.484 258.939C123.694 264.346 140.971 260.612 161.277 246.288C181.56 231.979 199.897 210.261 212.748 191.275C234.269 159.479 250.76 123.13 268.079 84.9561C270.619 79.3588 273.176 73.7221 275.77 68.0548C306.786 0.278692 371.026 -39.0691 438.398 -49.9691C484.147 -57.3709 528.772 -55.6947 570.49 -53.2451C576.447 -52.8953 582.33 -52.5316 588.149 -52.1718C624.026 -49.9538 657.522 -47.883 691.341 -50.1238L692.341 -50.19C731.182 -52.7625 755.704 -54.3867 774.769 -70.0841C781.126 -75.3187 787.274 -80.7798 793.985 -86.7415C797.751 -90.0873 801.695 -93.5906 805.953 -97.3001C817.015 -106.938 829.545 -117.353 842.646 -125.649C857.738 -135.205 877.721 -130.718 887.278 -115.625Z" fill="url(#paint0_linear_31_9)"/>
<path fill-rule="evenodd" clip-rule="evenodd" d="M1461.9 -123.58C1477.88 -131.565 1497.32 -125.092 1505.32 -109.122C1515.32 -89.149 1525.15 -67.7348 1534.36 -47.3986C1535.34 -45.2244 1536.31 -43.0524 1537.27 -40.8896C1541.36 -31.7053 1545.37 -22.6869 1550.44 -14.3724C1556.56 -4.35214 1560.49 -1.86703 1561.09 -1.50322C1561.48 -1.46592 1563.09 -1.28655 1566.75 -1.40395C1568.68 -1.46601 1570.59 -1.57825 1572.93 -1.716C1573.4 -1.74357 1573.89 -1.77218 1574.4 -1.8016C1577.15 -1.96108 1580.67 -2.15339 1584.17 -2.15339C1592.47 -2.15339 1600.37 -2.88015 1609.85 -3.75355C1612.89 -4.03386 1616.1 -4.32929 1619.54 -4.62063C1632.71 -5.73647 1648.32 -6.65218 1664.88 -4.41738C1693.73 -0.523469 1712.2 12.474 1725.89 22.0986C1728.77 24.1283 1731.45 26.0079 1733.96 27.6205C1752.27 39.3801 1763.95 59.7489 1771.2 73.175C1774.41 79.1215 1777.02 84.2241 1779.31 88.672C1783.6 97.0538 1786.71 103.11 1790.34 108.106C1807 131.049 1823.14 146.4 1846.65 162.843C1850.62 165.617 1855.64 167.835 1862.97 170.052C1866.67 171.171 1870.57 172.183 1875.17 173.351C1875.55 173.449 1875.94 173.548 1876.34 173.648C1880.46 174.695 1885.16 175.891 1889.87 177.248C1913.98 184.199 1931.95 189.128 1950.03 188.247C1982.91 186.645 2012.52 184.854 2039.11 176.68C2056.19 171.429 2074.3 181.006 2079.56 198.072C2084.82 215.137 2075.23 233.227 2058.15 238.478C2022.57 249.414 1984.9 251.283 1953.18 252.828C1923.52 254.274 1895.95 246.311 1874.08 239.994C1873.36 239.784 1872.64 239.576 1871.92 239.37C1868.26 238.314 1864.54 237.368 1860.23 236.273C1859.89 236.186 1859.54 236.099 1859.2 236.01C1854.65 234.854 1849.46 233.522 1844.21 231.934C1833.64 228.738 1821.38 224.093 1809.53 215.813C1780.68 195.639 1759.21 175.353 1737.95 146.075C1731.23 136.828 1724.42 123.569 1719.01 113.039C1717.25 109.613 1715.63 106.476 1714.22 103.86C1706.46 89.4759 1701.52 83.6579 1698.95 82.0093C1692.83 78.0741 1688.11 74.834 1684.21 72.154C1672.87 64.3642 1668.41 61.3054 1656.21 59.658C1646.98 58.412 1637.19 58.7739 1625.01 59.8058C1622.7 60.0014 1620.23 60.2311 1617.63 60.4725C1607.63 61.4018 1595.76 62.5044 1584.17 62.5044C1581.61 62.5044 1580.16 62.6067 1578.15 62.7471C1576.15 62.888 1573.59 63.0674 1568.83 63.2204C1562.51 63.4235 1552.31 63.4723 1542.13 60.3447C1518.34 53.0336 1503.58 33.054 1495.18 19.2855C1487.66 6.97632 1481.56 -6.81215 1477.51 -15.9902C1476.72 -17.7594 1476.02 -19.3573 1475.39 -20.7402L1504.87 -34.0694L1475.39 -20.7402C1466.21 -41.0075 1456.82 -61.4392 1447.42 -80.2061C1439.43 -96.1759 1445.91 -115.595 1461.9 -123.58Z" fill="url(#paint1_linear_31_9)"/>
<path fill-rule="evenodd" clip-rule="evenodd" d="M2102.86 15.1212C2108.12 32.1935 2098.55 50.297 2081.47 55.5565C2075.13 57.5107 2068.32 59.2498 2062.43 60.7546C2060.76 61.1812 2059.16 61.5889 2057.67 61.9774C2050.3 63.8954 2044.33 65.6215 2039.1 67.6908C2029.29 71.5771 2024.39 75.7321 2021.26 81.9982C2019.81 84.9073 2018.39 87.708 2017.02 90.4136C2009.94 104.387 2004.15 115.822 2001.34 126.54C2000.68 129.055 2000.71 134.888 2005.18 145.534C2009.47 155.742 2015.99 166.124 2022.68 176.369C2032.2 190.953 2048.41 217.049 2041.4 248.868C2037.6 266.156 2030.42 281.705 2024.72 294.05C2024.01 295.584 2023.33 297.068 2022.68 298.5C2011.9 322.126 1995.43 335.158 1978.03 343.501C1970.08 347.318 1961.9 350.169 1955.04 352.509C1954.07 352.843 1953.11 353.168 1952.17 353.486C1946.08 355.555 1940.77 357.361 1935.29 359.59C1932.36 360.778 1926.69 365.001 1919.59 374.398C1912.97 383.158 1907.26 393.547 1903.3 402.24C1898.72 412.279 1896.76 418.701 1895.93 424.401C1895.09 430.083 1895.1 436.869 1896.67 447.906C1899.92 470.766 1911.32 496.255 1928.57 516.189C1945.76 536.059 1966.51 547.987 1987.91 549.466C2019.79 551.67 2052.34 536.431 2082.13 511.833C2091.23 504.318 2098.21 494.464 2104.88 481.439C2109.36 472.7 2112.71 464.799 2116.5 455.855C2119.09 449.737 2121.89 443.131 2125.4 435.435C2145.73 390.839 2180.56 375.526 2211.58 361.885C2213.96 360.84 2216.31 359.805 2218.64 358.767C2220.71 357.839 2223.21 356.657 2226.02 355.33C2235.42 350.888 2248.25 344.82 2260.28 341.174C2277.65 335.912 2299.78 333.236 2322.87 343.768C2339.13 351.179 2346.3 370.363 2338.89 386.618C2331.48 402.872 2312.29 410.04 2296.04 402.629C2292.38 400.96 2287.77 400.441 2279.04 403.085C2271.93 405.24 2265.75 408.162 2257.77 411.934C2254.01 413.71 2249.86 415.675 2245.02 417.836C2244.33 418.141 2243.66 418.441 2242.99 418.739C2207.33 434.66 2194.17 440.534 2184.26 462.273C2182.26 466.656 2180.01 471.921 2177.59 477.579C2172.96 488.409 2167.72 500.679 2162.45 510.95C2153.57 528.279 2141.72 546.526 2123.32 561.717C2087.49 591.304 2038.89 617.837 1983.45 614.004C1940.36 611.025 1904.77 587.551 1879.65 558.519C1854.58 529.55 1837.7 492.635 1832.62 457.03C1830.53 442.375 1829.87 428.912 1831.92 414.981C1833.97 401.068 1838.46 388.512 1844.44 375.402C1849.78 363.678 1857.77 348.909 1867.98 335.396C1877.71 322.519 1892 307.354 1910.92 299.663C1918.31 296.66 1925.56 294.198 1931.55 292.167C1932.45 291.863 1933.32 291.568 1934.16 291.282C1941.04 288.933 1945.93 287.153 1950.06 285.173C1956.83 281.925 1960.6 278.71 1963.81 271.662C1964.5 270.163 1965.16 268.717 1965.8 267.318C1971.87 254.057 1976.01 245.02 1978.22 234.959C1978.54 233.538 1978.61 231.554 1977.29 227.849C1975.8 223.662 1973.04 218.673 1968.51 211.737C1961.93 201.659 1952.37 186.834 1945.54 170.59C1938.9 154.785 1932.79 132.921 1938.77 110.133C1943.51 92.0235 1953.15 73.1753 1960.11 59.5497C1961.29 57.2307 1962.4 55.063 1963.39 53.076C1976.01 27.8288 1996.46 14.9952 2015.29 7.54228C2024.38 3.94199 2033.54 1.41079 2041.36 -0.625413C2043.54 -1.19273 2045.58 -1.71344 2047.51 -2.2074C2053.05 -3.6249 2057.73 -4.82205 2062.43 -6.26777C2079.5 -11.5273 2097.6 -1.95107 2102.86 15.1212Z" fill="url(#paint2_linear_31_9)"/>
<path fill-rule="evenodd" clip-rule="evenodd" d="M187.041 -42.4973C204.901 -42.4973 219.38 -28.015 219.38 -10.1501C219.38 -8.06271 219.394 -5.91563 219.408 -3.72123C219.5 10.1382 219.603 25.8856 216.239 40.4014C211.718 59.9066 201.685 76.1982 184.799 92.4856C159.248 117.131 127.515 120.607 104.963 122.022C99.9411 122.337 95.3742 122.576 91.1854 122.796C73.5428 123.719 62.6056 124.291 52.6464 128.719C45.7769 131.773 37.9499 140.776 32.341 160.315C27.7455 176.324 26.1051 194.677 26.147 210.116C27.7987 211.061 30.0458 212.178 32.9525 213.357C38.094 215.443 43.8859 217.154 49.2184 218.321C54.8797 219.56 58.4602 219.846 59.3448 219.846C104.969 219.846 171.327 233.885 205.049 285.778C230.708 325.265 234.526 362.12 233.947 402.052C233.438 437.174 220.425 468.544 209.655 493.535C182.325 556.96 144.149 603.52 104.729 651.313C101.35 655.411 97.978 659.633 94.5475 663.928C75.1431 688.223 53.865 714.864 18.7376 734.628C16.7073 735.771 13.9343 737.423 10.7422 739.325C3.70491 743.518 -5.36936 748.924 -13.0136 752.757C-25.4913 759.014 -41.8961 765.503 -60.6614 765.503C-78.5215 765.503 -93 751.02 -93 733.155C-93 715.291 -78.5215 700.808 -60.6614 700.808C-56.569 700.808 -50.7866 699.33 -41.9991 694.923C-36.0338 691.932 -31.4296 689.157 -26.0782 685.932C-22.3208 683.668 -18.1951 681.182 -12.9711 678.242C10.4351 665.073 23.2903 649.135 42.5752 625.227C46.3709 620.521 50.4158 615.506 54.8392 610.143C94.6311 561.898 127.037 521.82 150.261 467.927C161.26 442.403 168.976 421.875 169.277 401.114C169.772 366.946 166.432 345.06 150.82 321.036C135.338 297.211 97.9539 284.54 59.3448 284.54C46.015 284.54 25.7116 280.232 8.64689 273.31C-0.101204 269.761 -10.1789 264.672 -18.6997 257.44C-26.9572 250.432 -37.6387 237.965 -38.3358 219.834C-39.1434 198.832 -37.6528 169.732 -29.8243 142.461C-22.2669 116.134 -6.60265 84.2625 26.3785 69.6003C48.4945 59.7683 74.1682 58.6606 92.061 57.8886C95.2868 57.7494 98.2596 57.6212 100.913 57.4547C121.904 56.1375 132.377 53.176 139.904 45.9156C149.789 36.3814 152.102 30.6689 153.233 25.7897C154.757 19.2148 154.742 12.0909 154.712 -2.81877C154.707 -5.07576 154.703 -7.51116 154.703 -10.1501C154.703 -28.015 169.181 -42.4973 187.041 -42.4973ZM22.8309 207.824C22.8333 207.824 22.8701 207.857 22.9344 207.925C22.8608 207.858 22.8286 207.824 22.8309 207.824Z" fill="url(#paint3_linear_31_9)"/>
<path d="M908.044 85.936C908.087 86.192 908.108 86.448 908.108 86.704C908.151 86.96 908.172 87.2373 908.172 87.536V87.6V87.664C908.172 87.9627 908.151 88.24 908.108 88.496C908.108 88.752 908.087 89.008 908.044 89.264V89.328L907.852 90.864C907.81 90.9067 907.788 90.992 907.788 91.12C907.746 91.3333 907.703 91.5253 907.66 91.696C907.618 91.8667 907.554 92.0587 907.468 92.272C906.871 94.2347 905.975 95.984 904.78 97.52C903.628 99.056 902.22 100.357 900.556 101.424C899.148 102.277 897.591 102.96 895.884 103.472C894.178 103.941 892.364 104.176 890.444 104.176H882.06V118.064H875.212V71.024H890.444C894.284 71.024 897.655 71.9413 900.556 73.776C902.22 74.8427 903.628 76.144 904.78 77.68C905.975 79.216 906.871 80.944 907.468 82.864C907.639 83.3333 907.746 83.7387 907.788 84.08C907.788 84.208 907.81 84.2933 907.852 84.336C907.895 84.592 907.916 84.848 907.916 85.104C907.959 85.36 908.002 85.5947 908.044 85.808V85.936ZM891.276 98.16C892.684 98.16 893.964 97.8613 895.116 97.264C896.311 96.6667 897.335 95.8773 898.188 94.896C899.084 93.9147 899.767 92.8053 900.236 91.568C900.748 90.288 901.004 88.9653 901.004 87.6C901.004 86.2347 900.748 84.9333 900.236 83.696C899.767 82.416 899.084 81.2853 898.188 80.304C897.335 79.3227 896.311 78.5333 895.116 77.936C893.964 77.3387 892.684 77.04 891.276 77.04H882.124V98.16H891.276ZM940.931 86.768C942.381 87.7067 943.619 88.88 944.643 90.288L940.931 93.232L939.523 94.384C938.797 93.3173 937.837 92.464 936.643 91.824C935.491 91.184 934.232 90.864 932.867 90.864C931.757 90.864 930.712 91.0773 929.731 91.504C928.749 91.9307 927.896 92.5067 927.171 93.232C926.445 93.9573 925.869 94.8107 925.443 95.792C925.016 96.7733 924.803 97.8187 924.803 98.928V111.088V117.936H918.275V98.928V84.336H924.803V86.768C925.955 86 927.213 85.4027 928.579 84.976C929.944 84.5493 931.373 84.336 932.867 84.336C934.36 84.336 935.789 84.5493 937.155 84.976C938.52 85.4027 939.779 86 940.931 86.768ZM968.046 84.208C970.392 84.208 972.59 84.656 974.638 85.552C976.686 86.4053 978.478 87.6 980.014 89.136C981.55 90.672 982.744 92.464 983.598 94.512C984.494 96.56 984.942 98.7573 984.942 101.104C984.942 103.451 984.494 105.648 983.598 107.696C982.744 109.744 981.55 111.536 980.014 113.072C978.478 114.608 976.686 115.824 974.638 116.72C972.59 117.573 970.392 118 968.046 118C965.699 118 963.502 117.573 961.454 116.72C959.406 115.824 957.614 114.608 956.078 113.072C954.542 111.536 953.326 109.744 952.43 107.696C951.576 105.648 951.15 103.451 951.15 101.104C951.15 98.7573 951.576 96.56 952.43 94.512C953.326 92.464 954.542 90.672 956.078 89.136C957.614 87.6 959.406 86.4053 961.454 85.552C963.502 84.656 965.699 84.208 968.046 84.208ZM968.046 111.408C969.454 111.408 970.776 111.152 972.014 110.64C973.294 110.085 974.403 109.339 975.342 108.4C976.28 107.461 977.006 106.373 977.518 105.136C978.072 103.856 978.35 102.512 978.35 101.104C978.35 99.696 978.072 98.3733 977.518 97.136C977.006 95.856 976.28 94.7467 975.342 93.808C974.403 92.8693 973.294 92.144 972.014 91.632C970.776 91.0773 969.454 90.8 968.046 90.8C966.638 90.8 965.294 91.0773 964.014 91.632C962.776 92.144 961.688 92.8693 960.75 93.808C959.811 94.7467 959.064 95.856 958.51 97.136C957.955 98.3733 957.678 99.696 957.678 101.104C957.678 102.512 957.955 103.856 958.51 105.136C959.064 106.373 959.811 107.461 960.75 108.4C961.688 109.339 962.776 110.085 964.014 110.64C965.294 111.152 966.638 111.408 968.046 111.408ZM1028.82 101.168C1028.82 103.515 1028.37 105.712 1027.47 107.76C1026.62 109.808 1025.42 111.6 1023.89 113.136C1022.35 114.672 1020.56 115.888 1018.51 116.784C1016.46 117.637 1014.27 118.064 1011.92 118.064C1009.57 118.064 1007.38 117.637 1005.33 116.784C1003.28 115.888 1001.49 114.672 999.953 113.136C998.417 111.6 997.201 109.808 996.305 107.76C995.451 105.712 995.025 103.515 995.025 101.168C995.025 98.8213 995.451 96.624 996.305 94.576C997.201 92.528 998.417 90.736 999.953 89.2C1001.49 87.664 1003.28 86.4693 1005.33 85.616C1007.38 84.72 1009.57 84.272 1011.92 84.272C1013.88 84.272 1015.72 84.592 1017.42 85.232C1019.17 85.8293 1020.77 86.6827 1022.22 87.792V61.68H1028.82V101.104V101.168ZM1011.92 111.472C1013.33 111.472 1014.65 111.216 1015.89 110.704C1017.17 110.149 1018.28 109.403 1019.22 108.464C1020.16 107.525 1020.88 106.437 1021.39 105.2C1021.95 103.92 1022.22 102.576 1022.22 101.168V101.104C1022.22 99.696 1021.95 98.3733 1021.39 97.136C1020.88 95.8987 1020.16 94.8107 1019.22 93.872C1018.28 92.9333 1017.17 92.208 1015.89 91.696C1014.65 91.1413 1013.33 90.864 1011.92 90.864C1010.51 90.864 1009.17 91.1413 1007.89 91.696C1006.65 92.208 1005.56 92.9333 1004.62 93.872C1003.69 94.8107 1002.94 95.92 1002.38 97.2C1001.83 98.4373 1001.55 99.76 1001.55 101.168C1001.55 102.576 1001.83 103.92 1002.38 105.2C1002.94 106.437 1003.69 107.525 1004.62 108.464C1005.56 109.403 1006.65 110.149 1007.89 110.704C1009.17 111.216 1010.51 111.472 1011.92 111.472ZM1068.21 84.336V103.472C1068.21 106.032 1067.61 108.379 1066.42 110.512C1065.27 112.645 1063.69 114.373 1061.68 115.696C1060.49 116.464 1059.21 117.061 1057.84 117.488C1056.48 117.915 1055.05 118.128 1053.56 118.128C1052.06 118.128 1050.63 117.915 1049.27 117.488C1047.9 117.061 1046.62 116.464 1045.43 115.696C1043.47 114.373 1041.89 112.645 1040.69 110.512C1039.5 108.379 1038.9 106.032 1038.9 103.472V84.336H1045.43V91.248V103.472C1045.43 104.581 1045.64 105.627 1046.07 106.608C1046.49 107.589 1047.07 108.443 1047.8 109.168C1048.52 109.893 1049.37 110.469 1050.36 110.896C1051.38 111.323 1052.45 111.536 1053.56 111.536C1054.67 111.536 1055.71 111.323 1056.69 110.896C1057.67 110.469 1058.53 109.893 1059.25 109.168C1060.02 108.443 1060.62 107.589 1061.04 106.608C1061.47 105.627 1061.68 104.581 1061.68 103.472V91.248V84.336H1068.21ZM1097.28 74.928V81.456H1091.14V118.064H1084.55V81.456H1078.34V74.928H1084.55V62.32H1091.14V74.928H1097.28ZM1124.3 84.208C1126.64 84.208 1128.84 84.656 1130.89 85.552C1132.94 86.4053 1134.73 87.6 1136.26 89.136C1137.8 90.672 1138.99 92.464 1139.85 94.512C1140.74 96.56 1141.19 98.7573 1141.19 101.104C1141.19 103.451 1140.74 105.648 1139.85 107.696C1138.99 109.744 1137.8 111.536 1136.26 113.072C1134.73 114.608 1132.94 115.824 1130.89 116.72C1128.84 117.573 1126.64 118 1124.3 118C1121.95 118 1119.75 117.573 1117.7 116.72C1115.66 115.824 1113.86 114.608 1112.33 113.072C1110.79 111.536 1109.58 109.744 1108.68 107.696C1107.83 105.648 1107.4 103.451 1107.4 101.104C1107.4 98.7573 1107.83 96.56 1108.68 94.512C1109.58 92.464 1110.79 90.672 1112.33 89.136C1113.86 87.6 1115.66 86.4053 1117.7 85.552C1119.75 84.656 1121.95 84.208 1124.3 84.208ZM1124.3 111.408C1125.7 111.408 1127.03 111.152 1128.26 110.64C1129.54 110.085 1130.65 109.339 1131.59 108.4C1132.53 107.461 1133.26 106.373 1133.77 105.136C1134.32 103.856 1134.6 102.512 1134.6 101.104C1134.6 99.696 1134.32 98.3733 1133.77 97.136C1133.26 95.856 1132.53 94.7467 1131.59 93.808C1130.65 92.8693 1129.54 92.144 1128.26 91.632C1127.03 91.0773 1125.7 90.8 1124.3 90.8C1122.89 90.8 1121.54 91.0773 1120.26 91.632C1119.03 92.144 1117.94 92.8693 1117 93.808C1116.06 94.7467 1115.31 95.856 1114.76 97.136C1114.21 98.3733 1113.93 99.696 1113.93 101.104C1113.93 102.512 1114.21 103.856 1114.76 105.136C1115.31 106.373 1116.06 107.461 1117 108.4C1117.94 109.339 1119.03 110.085 1120.26 110.64C1121.54 111.152 1122.89 111.408 1124.3 111.408ZM1169.9 102.384C1170.5 103.237 1170.97 104.176 1171.31 105.2C1171.65 106.181 1171.8 107.227 1171.75 108.336C1171.71 109.744 1171.39 111.045 1170.79 112.24C1170.2 113.435 1169.41 114.48 1168.43 115.376C1167.45 116.272 1166.29 116.976 1164.97 117.488C1163.65 117.957 1162.26 118.171 1160.81 118.128C1158.76 118.043 1156.91 117.509 1155.24 116.528C1153.62 115.547 1152.38 114.245 1151.53 112.624L1157.03 108.784C1157.25 109.552 1157.72 110.213 1158.44 110.768C1159.17 111.28 1160.02 111.536 1161 111.536C1162.11 111.579 1163.07 111.28 1163.88 110.64C1164.74 109.957 1165.16 109.125 1165.16 108.144C1165.16 107.845 1165.14 107.632 1165.1 107.504V107.376C1165.06 107.291 1165.03 107.227 1165.03 107.184C1165.03 107.099 1165.01 107.013 1164.97 106.928C1164.67 106.203 1164.12 105.605 1163.31 105.136C1163.18 105.051 1162.99 104.965 1162.73 104.88L1162.79 104.816C1162.2 104.475 1161.54 104.155 1160.81 103.856C1160.09 103.515 1159.34 103.173 1158.57 102.832C1157.85 102.448 1157.12 102.064 1156.39 101.68C1155.67 101.253 1154.99 100.763 1154.35 100.208V100.144L1154.15 99.952C1153.26 99.0987 1152.55 98.1173 1152.04 97.008C1151.53 95.856 1151.3 94.64 1151.34 93.36C1151.38 92.08 1151.68 90.8853 1152.23 89.776C1152.79 88.6667 1153.51 87.7067 1154.41 86.896C1155.35 86.0853 1156.44 85.4453 1157.67 84.976C1158.91 84.5067 1160.23 84.2933 1161.64 84.336C1163.48 84.4213 1165.12 84.8693 1166.57 85.68C1168.06 86.4907 1169.24 87.5787 1170.09 88.944L1164.71 92.656C1164.46 92.1867 1164.03 91.7813 1163.43 91.44C1162.88 91.0987 1162.24 90.928 1161.51 90.928C1160.53 90.8853 1159.68 91.12 1158.95 91.632C1158.27 92.144 1157.93 92.7627 1157.93 93.488C1157.93 93.7013 1157.95 93.8507 1157.99 93.936C1158.08 94.4053 1158.29 94.8107 1158.63 95.152C1158.98 95.4933 1159.4 95.7707 1159.91 95.984C1160.73 96.4533 1161.64 96.944 1162.67 97.456C1163.73 97.9253 1164.8 98.4587 1165.87 99.056C1166.63 99.3973 1167.4 99.888 1168.17 100.528L1168.49 100.848C1168.92 101.232 1169.39 101.744 1169.9 102.384Z" fill="white"/>
</g>
<defs>
<linearGradient id="paint0_linear_31_9" x1="613.659" y1="-207.81" x2="343.941" y2="398.906" gradientUnits="userSpaceOnUse">
<stop stop-color="#FF003D"/>
<stop offset="1" stop-color="#00F0FF"/>
</linearGradient>
<linearGradient id="paint1_linear_31_9" x1="1762.5" y1="-94.664" x2="1762.5" y2="220.674" gradientUnits="userSpaceOnUse">
<stop stop-color="#FF003D"/>
<stop offset="1" stop-color="#00F0FF"/>
</linearGradient>
<linearGradient id="paint2_linear_31_9" x1="2210.75" y1="87.9292" x2="1982.92" y2="587.599" gradientUnits="userSpaceOnUse">
<stop stop-color="#FF003D"/>
<stop offset="1" stop-color="#00F0FF"/>
</linearGradient>
<linearGradient id="paint3_linear_31_9" x1="70.4999" y1="-10.1501" x2="70.4999" y2="733.155" gradientUnits="userSpaceOnUse">
<stop stop-color="#FF003D"/>
<stop offset="1" stop-color="#00F0FF"/>
</linearGradient>
</defs>
</svg>
