<svg width="2048" height="203" viewBox="0 0 2048 203" fill="none" xmlns="http://www.w3.org/2000/svg">
<path d="M0 1H2048V203H0V1Z" fill="#272727"/>
<mask id="mask0_82_21" style="mask-type:alpha" maskUnits="userSpaceOnUse" x="0" y="0" width="2048" height="203">
<path d="M0 0H2048V203H0V0Z" fill="#272727"/>
</mask>
<g mask="url(#mask0_82_21)">
<path fill-rule="evenodd" clip-rule="evenodd" d="M887.278 -115.625C896.835 -100.532 892.347 -80.5496 877.254 -70.9928C868.537 -65.4729 859.079 -57.7852 848.447 -48.5227C845.237 -45.7261 841.8 -42.6756 838.254 -39.528C830.919 -33.0181 823.116 -26.0934 815.889 -20.1429C780.148 9.28573 735.497 11.994 703.066 13.9611C700.504 14.1165 698.018 14.2673 695.618 14.4263C657.317 16.964 619.237 14.5903 583.597 12.3686C577.899 12.0133 572.263 11.662 566.698 11.3353C525.371 8.90855 486.903 7.71598 448.73 13.8921C398.263 22.057 354.912 50.5767 334.594 94.9749C332.16 100.294 329.698 105.731 327.196 111.256C310.119 148.974 291.171 190.823 266.321 227.537C251.121 249.994 227.647 278.637 198.567 299.15C169.509 319.648 129.87 335.198 86.816 319.894C69.9838 313.91 61.1891 295.415 67.1725 278.582C73.156 261.75 91.6517 252.956 108.484 258.939C123.694 264.346 140.971 260.612 161.277 246.288C181.56 231.979 199.897 210.261 212.748 191.275C234.269 159.479 250.76 123.13 268.079 84.9561C270.619 79.3588 273.176 73.7221 275.77 68.0548C306.786 0.278692 371.026 -39.0691 438.398 -49.9691C484.147 -57.3709 528.772 -55.6947 570.49 -53.2451C576.447 -52.8953 582.33 -52.5316 588.149 -52.1718C624.026 -49.9538 657.522 -47.883 691.341 -50.1238L692.341 -50.19C731.182 -52.7625 755.704 -54.3867 774.769 -70.0841C781.126 -75.3187 787.274 -80.7798 793.985 -86.7415C797.751 -90.0873 801.695 -93.5906 805.953 -97.3001C817.015 -106.938 829.545 -117.353 842.646 -125.649C857.738 -135.205 877.721 -130.718 887.278 -115.625Z" fill="url(#paint0_linear_82_21)"/>
<path fill-rule="evenodd" clip-rule="evenodd" d="M1461.9 -123.58C1477.88 -131.565 1497.32 -125.092 1505.32 -109.122C1515.32 -89.149 1525.15 -67.7348 1534.36 -47.3986C1535.34 -45.2244 1536.31 -43.0524 1537.27 -40.8896C1541.36 -31.7053 1545.37 -22.6869 1550.44 -14.3724C1556.56 -4.35214 1560.49 -1.86703 1561.09 -1.50322C1561.48 -1.46592 1563.09 -1.28655 1566.75 -1.40395C1568.68 -1.46601 1570.59 -1.57825 1572.93 -1.716C1573.4 -1.74357 1573.89 -1.77218 1574.4 -1.8016C1577.15 -1.96108 1580.67 -2.15339 1584.17 -2.15339C1592.47 -2.15339 1600.37 -2.88015 1609.85 -3.75355C1612.89 -4.03386 1616.1 -4.32929 1619.54 -4.62063C1632.71 -5.73647 1648.32 -6.65218 1664.88 -4.41738C1693.73 -0.523469 1712.2 12.474 1725.89 22.0986C1728.77 24.1283 1731.45 26.0079 1733.96 27.6205C1752.27 39.3801 1763.95 59.7489 1771.2 73.175C1774.41 79.1215 1777.02 84.2241 1779.31 88.672C1783.6 97.0538 1786.71 103.11 1790.34 108.106C1807 131.049 1823.14 146.4 1846.65 162.843C1850.62 165.617 1855.64 167.835 1862.97 170.052C1866.67 171.171 1870.57 172.183 1875.17 173.351C1875.55 173.449 1875.94 173.548 1876.34 173.648C1880.46 174.695 1885.16 175.891 1889.87 177.248C1913.98 184.199 1931.95 189.128 1950.03 188.247C1982.91 186.645 2012.52 184.854 2039.11 176.68C2056.19 171.429 2074.3 181.006 2079.56 198.072C2084.82 215.137 2075.23 233.227 2058.15 238.478C2022.57 249.414 1984.9 251.283 1953.18 252.828C1923.52 254.274 1895.95 246.311 1874.08 239.994C1873.36 239.784 1872.64 239.576 1871.92 239.37C1868.26 238.314 1864.54 237.368 1860.23 236.273C1859.89 236.186 1859.54 236.099 1859.2 236.01C1854.65 234.854 1849.46 233.522 1844.21 231.934C1833.64 228.738 1821.38 224.093 1809.53 215.813C1780.68 195.639 1759.21 175.353 1737.95 146.075C1731.23 136.828 1724.42 123.569 1719.01 113.039C1717.25 109.613 1715.63 106.476 1714.22 103.86C1706.46 89.4759 1701.52 83.6579 1698.95 82.0093C1692.83 78.0741 1688.11 74.834 1684.21 72.154C1672.87 64.3642 1668.41 61.3054 1656.21 59.658C1646.98 58.412 1637.19 58.7739 1625.01 59.8058C1622.7 60.0014 1620.23 60.2311 1617.63 60.4725C1607.63 61.4018 1595.76 62.5044 1584.17 62.5044C1581.61 62.5044 1580.16 62.6067 1578.15 62.7471C1576.15 62.888 1573.59 63.0674 1568.83 63.2204C1562.51 63.4235 1552.31 63.4723 1542.13 60.3447C1518.34 53.0336 1503.58 33.054 1495.18 19.2855C1487.66 6.97632 1481.56 -6.81215 1477.51 -15.9902C1476.72 -17.7594 1476.02 -19.3573 1475.39 -20.7402L1504.87 -34.0694L1475.39 -20.7402C1466.21 -41.0075 1456.82 -61.4392 1447.42 -80.2061C1439.43 -96.1759 1445.91 -115.595 1461.9 -123.58Z" fill="url(#paint1_linear_82_21)"/>
<path fill-rule="evenodd" clip-rule="evenodd" d="M2102.86 15.1212C2108.12 32.1935 2098.55 50.297 2081.47 55.5565C2075.13 57.5107 2068.32 59.2498 2062.43 60.7546C2060.76 61.1812 2059.16 61.5889 2057.67 61.9774C2050.3 63.8954 2044.33 65.6215 2039.1 67.6908C2029.29 71.5771 2024.39 75.7321 2021.26 81.9982C2019.81 84.9073 2018.39 87.708 2017.02 90.4136C2009.94 104.387 2004.15 115.822 2001.34 126.54C2000.68 129.055 2000.71 134.888 2005.18 145.534C2009.47 155.742 2015.99 166.124 2022.68 176.369C2032.2 190.953 2048.41 217.049 2041.4 248.868C2037.6 266.156 2030.42 281.705 2024.72 294.05C2024.01 295.584 2023.33 297.068 2022.68 298.5C2011.9 322.126 1995.43 335.158 1978.03 343.501C1970.08 347.318 1961.9 350.169 1955.04 352.509C1954.07 352.843 1953.11 353.168 1952.17 353.486C1946.08 355.555 1940.77 357.361 1935.29 359.59C1932.36 360.778 1926.69 365.001 1919.59 374.398C1912.97 383.158 1907.26 393.547 1903.3 402.24C1898.72 412.279 1896.76 418.701 1895.93 424.401C1895.09 430.083 1895.1 436.869 1896.67 447.906C1899.92 470.766 1911.32 496.255 1928.57 516.189C1945.76 536.059 1966.51 547.987 1987.91 549.466C2019.79 551.67 2052.34 536.431 2082.13 511.833C2091.23 504.318 2098.21 494.464 2104.88 481.439C2109.36 472.7 2112.71 464.799 2116.5 455.855C2119.09 449.737 2121.89 443.131 2125.4 435.435C2145.73 390.839 2180.56 375.526 2211.58 361.885C2213.96 360.84 2216.31 359.805 2218.64 358.767C2220.71 357.839 2223.21 356.657 2226.02 355.33C2235.42 350.888 2248.25 344.82 2260.28 341.174C2277.65 335.912 2299.78 333.236 2322.87 343.768C2339.13 351.179 2346.3 370.363 2338.89 386.618C2331.48 402.872 2312.29 410.04 2296.04 402.629C2292.38 400.96 2287.77 400.441 2279.04 403.085C2271.93 405.24 2265.75 408.162 2257.77 411.934C2254.01 413.71 2249.86 415.675 2245.02 417.836C2244.33 418.141 2243.66 418.441 2242.99 418.739C2207.33 434.66 2194.17 440.534 2184.26 462.273C2182.26 466.656 2180.01 471.921 2177.59 477.579C2172.96 488.409 2167.72 500.679 2162.45 510.95C2153.57 528.279 2141.72 546.526 2123.32 561.717C2087.49 591.304 2038.89 617.837 1983.45 614.004C1940.36 611.025 1904.77 587.551 1879.65 558.519C1854.58 529.55 1837.7 492.635 1832.62 457.03C1830.53 442.375 1829.87 428.912 1831.92 414.981C1833.97 401.068 1838.46 388.512 1844.44 375.402C1849.78 363.678 1857.77 348.909 1867.98 335.396C1877.71 322.519 1892 307.354 1910.92 299.663C1918.31 296.66 1925.56 294.198 1931.55 292.167C1932.45 291.863 1933.32 291.568 1934.16 291.282C1941.04 288.933 1945.93 287.153 1950.06 285.173C1956.83 281.925 1960.6 278.71 1963.81 271.662C1964.5 270.163 1965.16 268.717 1965.8 267.318C1971.87 254.057 1976.01 245.02 1978.22 234.959C1978.54 233.538 1978.61 231.554 1977.29 227.849C1975.8 223.662 1973.04 218.673 1968.51 211.737C1961.93 201.659 1952.37 186.834 1945.54 170.59C1938.9 154.785 1932.79 132.921 1938.77 110.133C1943.51 92.0235 1953.15 73.1753 1960.11 59.5497C1961.29 57.2307 1962.4 55.063 1963.39 53.076C1976.01 27.8288 1996.46 14.9952 2015.29 7.54228C2024.38 3.94199 2033.54 1.41079 2041.36 -0.625413C2043.54 -1.19273 2045.58 -1.71344 2047.51 -2.2074C2053.05 -3.6249 2057.73 -4.82205 2062.43 -6.26777C2079.5 -11.5273 2097.6 -1.95107 2102.86 15.1212Z" fill="url(#paint2_linear_82_21)"/>
<path fill-rule="evenodd" clip-rule="evenodd" d="M187.041 -42.4973C204.901 -42.4973 219.38 -28.015 219.38 -10.1501C219.38 -8.06271 219.394 -5.91563 219.408 -3.72123C219.5 10.1382 219.603 25.8856 216.239 40.4014C211.718 59.9066 201.685 76.1982 184.799 92.4856C159.248 117.131 127.515 120.607 104.963 122.022C99.9411 122.337 95.3742 122.576 91.1854 122.796C73.5428 123.719 62.6056 124.291 52.6464 128.719C45.7769 131.773 37.9499 140.776 32.341 160.315C27.7455 176.324 26.1051 194.677 26.147 210.116C27.7987 211.061 30.0458 212.178 32.9525 213.357C38.094 215.443 43.8859 217.154 49.2184 218.321C54.8797 219.56 58.4602 219.846 59.3448 219.846C104.969 219.846 171.327 233.885 205.049 285.778C230.708 325.265 234.526 362.12 233.947 402.052C233.438 437.174 220.425 468.544 209.655 493.535C182.325 556.96 144.149 603.52 104.729 651.313C101.35 655.411 97.978 659.633 94.5475 663.928C75.1431 688.223 53.865 714.864 18.7376 734.628C16.7073 735.771 13.9343 737.423 10.7422 739.325C3.70491 743.518 -5.36936 748.924 -13.0136 752.757C-25.4913 759.014 -41.8961 765.503 -60.6614 765.503C-78.5215 765.503 -93 751.02 -93 733.155C-93 715.291 -78.5215 700.808 -60.6614 700.808C-56.569 700.808 -50.7866 699.33 -41.9991 694.923C-36.0338 691.932 -31.4296 689.157 -26.0782 685.932C-22.3208 683.668 -18.1951 681.182 -12.9711 678.242C10.4351 665.073 23.2903 649.135 42.5752 625.227C46.3709 620.521 50.4158 615.506 54.8392 610.143C94.6311 561.898 127.037 521.82 150.261 467.927C161.26 442.403 168.976 421.875 169.277 401.114C169.772 366.946 166.432 345.06 150.82 321.036C135.338 297.211 97.9539 284.54 59.3448 284.54C46.015 284.54 25.7116 280.232 8.64689 273.31C-0.101204 269.761 -10.1789 264.672 -18.6997 257.44C-26.9572 250.432 -37.6387 237.965 -38.3358 219.834C-39.1434 198.832 -37.6528 169.732 -29.8243 142.461C-22.2669 116.134 -6.60265 84.2625 26.3785 69.6003C48.4945 59.7683 74.1682 58.6606 92.061 57.8886C95.2868 57.7494 98.2596 57.6212 100.913 57.4547C121.904 56.1375 132.377 53.176 139.904 45.9156C149.789 36.3814 152.102 30.6689 153.233 25.7897C154.757 19.2148 154.742 12.0909 154.712 -2.81877C154.707 -5.07576 154.703 -7.51116 154.703 -10.1501C154.703 -28.015 169.181 -42.4973 187.041 -42.4973ZM22.8309 207.824C22.8333 207.824 22.8701 207.857 22.9344 207.925C22.8608 207.858 22.8286 207.824 22.8309 207.824Z" fill="url(#paint3_linear_82_21)"/>
<path d="M900.318 111.536C903.048 111.536 905.544 110.896 907.806 109.616C910.11 108.293 911.987 106.544 913.438 104.368L919.006 108.528C916.872 111.429 914.184 113.733 910.942 115.44C907.742 117.147 904.2 118 900.318 118C897.118 118 894.11 117.381 891.294 116.144C888.478 114.907 886.024 113.243 883.934 111.152C881.843 109.019 880.179 106.544 878.942 103.728C877.747 100.869 877.15 97.8187 877.15 94.576C877.15 91.3333 877.747 88.304 878.942 85.488C880.179 82.6293 881.843 80.1547 883.934 78.064C886.024 75.9307 888.478 74.2453 891.294 73.008C894.11 71.7707 897.118 71.152 900.318 71.152C904.2 71.152 907.742 72.0053 910.942 73.712C914.184 75.4187 916.872 77.7227 919.006 80.624L913.438 84.784C911.987 82.608 910.11 80.88 907.806 79.6C905.544 78.2773 903.048 77.616 900.318 77.616C898.099 77.616 896.008 78.064 894.046 78.96C892.126 79.856 890.44 81.072 888.99 82.608C887.539 84.144 886.387 85.936 885.534 87.984C884.68 90.032 884.254 92.2293 884.254 94.576C884.254 96.9227 884.68 99.12 885.534 101.168C886.387 103.216 887.539 105.008 888.99 106.544C890.44 108.08 892.126 109.296 894.046 110.192C896.008 111.088 898.099 111.536 900.318 111.536ZM945.215 84.272C947.562 84.272 949.759 84.72 951.807 85.616C953.898 86.512 955.711 87.728 957.247 89.264C958.826 90.8 960.063 92.6133 960.959 94.704C961.855 96.7947 962.303 99.0133 962.303 101.36V117.936H955.647V114.8C954.197 115.909 952.597 116.784 950.847 117.424C949.098 118.064 947.221 118.384 945.215 118.384C942.869 118.384 940.65 117.936 938.559 117.04C936.511 116.144 934.719 114.928 933.183 113.392C931.647 111.856 930.431 110.064 929.535 108.016C928.639 105.925 928.191 103.707 928.191 101.36C928.191 99.0133 928.639 96.7947 929.535 94.704C930.431 92.6133 931.647 90.8 933.183 89.264C934.719 87.728 936.511 86.512 938.559 85.616C940.65 84.72 942.869 84.272 945.215 84.272ZM945.215 111.728C946.666 111.728 948.01 111.451 949.247 110.896C950.527 110.341 951.637 109.595 952.575 108.656C953.514 107.717 954.261 106.629 954.815 105.392C955.37 104.112 955.647 102.768 955.647 101.36C955.647 99.9093 955.37 98.5653 954.815 97.328C954.261 96.048 953.514 94.9387 952.575 94C951.637 93.0613 950.527 92.3147 949.247 91.76C948.01 91.2053 946.666 90.928 945.215 90.928C943.765 90.928 942.399 91.2053 941.119 91.76C939.882 92.3147 938.794 93.0613 937.855 94C936.917 94.9387 936.17 96.048 935.615 97.328C935.061 98.5653 934.783 99.9093 934.783 101.36C934.783 102.768 935.061 104.112 935.615 105.392C936.17 106.629 936.917 107.717 937.855 108.656C938.794 109.595 939.882 110.341 941.119 110.896C942.399 111.451 943.765 111.728 945.215 111.728ZM995.056 86.768C996.506 87.7067 997.744 88.88 998.768 90.288L995.056 93.232L993.648 94.384C992.922 93.3173 991.962 92.464 990.768 91.824C989.616 91.184 988.357 90.864 986.992 90.864C985.882 90.864 984.837 91.0773 983.856 91.504C982.874 91.9307 982.021 92.5067 981.296 93.232C980.57 93.9573 979.994 94.8107 979.568 95.792C979.141 96.7733 978.928 97.8187 978.928 98.928V111.088V117.936H972.4V98.928V84.336H978.928V86.768C980.08 86 981.338 85.4027 982.704 84.976C984.069 84.5493 985.498 84.336 986.992 84.336C988.485 84.336 989.914 84.5493 991.28 84.976C992.645 85.4027 993.904 86 995.056 86.768ZM1027.93 86.768C1029.38 87.7067 1030.62 88.88 1031.64 90.288L1027.93 93.232L1026.52 94.384C1025.8 93.3173 1024.84 92.464 1023.64 91.824C1022.49 91.184 1021.23 90.864 1019.87 90.864C1018.76 90.864 1017.71 91.0773 1016.73 91.504C1015.75 91.9307 1014.9 92.5067 1014.17 93.232C1013.45 93.9573 1012.87 94.8107 1012.44 95.792C1012.02 96.7733 1011.8 97.8187 1011.8 98.928V111.088V117.936H1005.27V98.928V84.336H1011.8V86.768C1012.95 86 1014.21 85.4027 1015.58 84.976C1016.94 84.5493 1018.37 84.336 1019.87 84.336C1021.36 84.336 1022.79 84.5493 1024.15 84.976C1025.52 85.4027 1026.78 86 1027.93 86.768ZM1039.17 84.208H1045.7V118H1039.17V84.208ZM1039.17 80.752V74.224H1045.7V80.752H1039.17ZM1079.75 86.448C1081.8 87.8133 1083.42 89.584 1084.61 91.76C1085.81 93.8933 1086.41 96.24 1086.41 98.8V118.064H1079.75V111.088V98.8C1079.75 97.6907 1079.54 96.6453 1079.11 95.664C1078.68 94.64 1078.09 93.7653 1077.32 93.04C1076.59 92.272 1075.74 91.6747 1074.76 91.248C1073.78 90.8213 1072.73 90.608 1071.62 90.608C1070.51 90.608 1069.45 90.8213 1068.42 91.248C1067.44 91.6747 1066.59 92.272 1065.86 93.04C1065.14 93.7653 1064.56 94.64 1064.13 95.664C1063.71 96.6453 1063.49 97.6907 1063.49 98.8V111.088V118.064H1056.84V98.8V84.016H1063.49V86.448C1064.65 85.68 1065.9 85.0827 1067.27 84.656C1068.68 84.2293 1070.13 84.016 1071.62 84.016C1073.11 84.016 1074.54 84.2293 1075.91 84.656C1077.32 85.0827 1078.6 85.68 1079.75 86.448ZM1119.37 86.64C1121.38 87.9627 1122.98 89.712 1124.17 91.888C1125.37 94.0213 1125.96 96.368 1125.96 98.928V118.128H1119.37V111.216V98.928C1119.37 97.8187 1119.16 96.7733 1118.73 95.792C1118.31 94.8107 1117.71 93.9573 1116.94 93.232C1116.22 92.464 1115.36 91.8667 1114.38 91.44C1113.4 91.0133 1112.35 90.8 1111.24 90.8C1110.14 90.8 1109.07 91.0133 1108.04 91.44C1107.06 91.8667 1106.21 92.464 1105.48 93.232C1104.76 93.9573 1104.18 94.8107 1103.76 95.792C1103.33 96.7733 1103.12 97.8187 1103.12 98.928V111.216V118.128H1096.52V98.928V61.488H1103.12V86.64C1104.27 85.872 1105.53 85.2747 1106.89 84.848C1108.3 84.4213 1109.75 84.208 1111.24 84.208C1112.74 84.208 1114.17 84.4213 1115.53 84.848C1116.94 85.2747 1118.22 85.872 1119.37 86.64ZM1152.98 84.208C1155.33 84.208 1157.53 84.656 1159.58 85.552C1161.62 86.4053 1163.42 87.6 1164.95 89.136C1166.49 90.672 1167.68 92.464 1168.54 94.512C1169.43 96.56 1169.88 98.7573 1169.88 101.104C1169.88 103.451 1169.43 105.648 1168.54 107.696C1167.68 109.744 1166.49 111.536 1164.95 113.072C1163.42 114.608 1161.62 115.824 1159.58 116.72C1157.53 117.573 1155.33 118 1152.98 118C1150.64 118 1148.44 117.573 1146.39 116.72C1144.34 115.824 1142.55 114.608 1141.02 113.072C1139.48 111.536 1138.26 109.744 1137.37 107.696C1136.51 105.648 1136.09 103.451 1136.09 101.104C1136.09 98.7573 1136.51 96.56 1137.37 94.512C1138.26 92.464 1139.48 90.672 1141.02 89.136C1142.55 87.6 1144.34 86.4053 1146.39 85.552C1148.44 84.656 1150.64 84.208 1152.98 84.208ZM1152.98 111.408C1154.39 111.408 1155.71 111.152 1156.95 110.64C1158.23 110.085 1159.34 109.339 1160.28 108.4C1161.22 107.461 1161.94 106.373 1162.46 105.136C1163.01 103.856 1163.29 102.512 1163.29 101.104C1163.29 99.696 1163.01 98.3733 1162.46 97.136C1161.94 95.856 1161.22 94.7467 1160.28 93.808C1159.34 92.8693 1158.23 92.144 1156.95 91.632C1155.71 91.0773 1154.39 90.8 1152.98 90.8C1151.58 90.8 1150.23 91.0773 1148.95 91.632C1147.71 92.144 1146.63 92.8693 1145.69 93.808C1144.75 94.7467 1144 95.856 1143.45 97.136C1142.89 98.3733 1142.62 99.696 1142.62 101.104C1142.62 102.512 1142.89 103.856 1143.45 105.136C1144 106.373 1144.75 107.461 1145.69 108.4C1146.63 109.339 1147.71 110.085 1148.95 110.64C1150.23 111.152 1151.58 111.408 1152.98 111.408Z" fill="white"/>
</g>
<defs>
<linearGradient id="paint0_linear_82_21" x1="613.659" y1="-207.81" x2="343.941" y2="398.906" gradientUnits="userSpaceOnUse">
<stop stop-color="#FF003D"/>
<stop offset="1" stop-color="#00F0FF"/>
</linearGradient>
<linearGradient id="paint1_linear_82_21" x1="1762.5" y1="-94.664" x2="1762.5" y2="220.674" gradientUnits="userSpaceOnUse">
<stop stop-color="#FF003D"/>
<stop offset="1" stop-color="#00F0FF"/>
</linearGradient>
<linearGradient id="paint2_linear_82_21" x1="2210.75" y1="87.9292" x2="1982.92" y2="587.599" gradientUnits="userSpaceOnUse">
<stop stop-color="#FF003D"/>
<stop offset="1" stop-color="#00F0FF"/>
</linearGradient>
<linearGradient id="paint3_linear_82_21" x1="70.4999" y1="-10.1501" x2="70.4999" y2="733.155" gradientUnits="userSpaceOnUse">
<stop stop-color="#FF003D"/>
<stop offset="1" stop-color="#00F0FF"/>
</linearGradient>
</defs>
</svg>
