<svg width="339" height="357" viewBox="0 0 339 357" fill="none" xmlns="http://www.w3.org/2000/svg">
<path d="M59.4609 154.17C79.2476 149.223 84.6142 109.303 89.9403 93.3244C96.0135 75.1047 87.904 111.884 98.8112 111.18C108.587 110.549 117.586 101.244 124.287 95.2578C127.182 92.6714 153.606 62.7769 156.472 63.4137C161.632 64.5603 157.723 127.298 157.723 137.793" stroke="#00F0FF" stroke-width="21" stroke-linecap="round"/>
<path d="M182.288 139.84C185.473 112.947 190.137 86.6059 194.571 60.0018" stroke="#00F0FF" stroke-width="21" stroke-linecap="round"/>
<path d="M188.43 105.039C206.99 111.402 223.455 125.898 241.655 133.698" stroke="#00F0FF" stroke-width="21" stroke-linecap="round"/>
<path d="M188.43 107.086C192.163 100.367 201.683 93.1146 208.901 90.7087" stroke="#00F0FF" stroke-width="21" stroke-linecap="round"/>
<path d="M88.1206 262.667C94.5777 260.246 86.0735 224.565 86.0735 215.811C86.0735 211.137 83.7009 198.464 89.4854 196.022C96.5273 193.049 110.431 194.301 117.918 195.453C126.059 196.706 139.41 204.333 137.138 214.56C134.914 224.568 91.9481 226.205 81.9793 227.866" stroke="#00F0FF" stroke-width="21" stroke-linecap="round"/>
<path d="M172.053 205.348C171.295 214.688 153.311 244.646 164.092 252.432C180.336 264.164 208.301 264.694 227.325 266.761C233.273 267.408 243.531 266.591 247.796 270.856" stroke="#00F0FF" stroke-width="21" stroke-linecap="round"/>
<path d="M215.042 14.965C213.876 19.6306 167.314 23.9598 158.86 25.0869C138.785 27.7636 120.136 36.4732 102.223 45.6719C77.4016 58.4181 52.2121 67.5387 33.3032 88.2066C20.7755 101.9 22.5377 117.492 17.3811 133.698C13.2398 146.714 12.377 159.07 12.377 172.594C12.377 189.372 8.89977 210.411 15.6751 226.046C25.745 249.285 41.3054 280.446 62.6453 295.421C94.7047 317.919 133.833 328.109 171.484 336.25C195.929 341.535 238.358 355.59 259.397 335.909C268.606 327.294 282.713 321.371 289.876 310.888C297.137 300.263 300.888 284.314 305.912 272.334C315.297 249.954 312.395 225.512 320.583 202.618C330.381 175.223 330.941 144.23 321.493 116.411C316.808 102.618 309.625 90.1332 305.002 76.2651C301.832 66.7552 297.559 53.633 290.331 46.1268C280.065 35.4654 261.785 28.3033 248.934 21.1064C240.052 16.1329 230.038 15.2977 221.184 10.8708" stroke="#00F0FF" stroke-width="21" stroke-linecap="round"/>
</svg>
